<svg xmlns="http://www.w3.org/2000/svg" xmlns:xlink="http://www.w3.org/1999/xlink" width="774.734" height="666.993" viewBox="0 0 774.734 666.993">
  <defs>
    <linearGradient id="linear-gradient" x1="0.5" y1="0.925" x2="0.5" gradientUnits="objectBoundingBox">
      <stop offset="0" stop-color="#fff"/>
      <stop offset="1" stop-color="#fff" stop-opacity="0"/>
    </linearGradient>
  </defs>
  <path id="Union_3" data-name="Union 3" d="M518.171,666.992q-86.382-.154-172.778-.074-75.969.008-151.944-.046A47.424,47.424,0,0,1,151.163,639.7l.739-.346-.742.338c-5.477-11.992-4.72-25.357-4.056-37.088.142-11.987.088-24.178.034-35.965-.059-13.939-.125-28.35.139-42.36-.125-1.226-.128-2.529-.131-3.909-.016-5.208-.286-8.727-3.914-10.246C126.221,500.5,109,490.582,92.354,480.994q-13.627-7.848-27.224-15.654a34.1,34.1,0,0,1-8.743-6.554l-.344-.355-.049-.491a181.982,181.982,0,0,1-.46-19.877c.04-3.039.082-6.079.051-9.133q.081-88.757-.029-177.526c-.051-72.742-.105-147.961.031-222.039A71.509,71.509,0,0,1,58.077,15l-1.2.009c-15.312.113-31.142.227-46.654.048-1.046.029-6.409.023-8.9-2.892A5.038,5.038,0,0,1,.191,8.1,5.445,5.445,0,0,1,1.324,3.045C3.324.726,7.247-.117,9.9.257,256.34.025,506.26-.029,752.651.119c1.636-.083,3.278-.12,4.92-.12a103.79,103.79,0,0,1,13.012.818l.526.173a7.426,7.426,0,0,1,3.245,8.816A6.892,6.892,0,0,1,767.1,14.87c-11.965.44-24.128.318-35.888.2-3.55-.034-7.1-.071-10.641-.091a66.834,66.834,0,0,1,2.361,23.9c-.329,22.338,0,45.057.312,67.028.3,20.93.607,42.572.355,63.854q-.046,89.647-.029,179.473c.005,26.411.015,53,.029,79.593a184.531,184.531,0,0,1-1.488,31.23l-.1.707-.622.346c-18.779,10.419-37.684,21.384-55.966,31.982q-16.566,9.609-33.164,19.136c-.278,7.294-.281,14.72-.281,21.9,0,6.276,0,12.761-.188,19.153l-.017.565-.4.4q-56.145,56.106-112.2,112.328l-.418.418ZM203.062,652.019c2.344-.042,4.667-.079,6.906-.031,98.8-.071,199-.071,297.829,0l.034-18.029c.042-19.37.088-39.4-.108-59.092l0-.258.52-1.427c2.678-7.36,5.445-14.97,11.561-20.374a39.588,39.588,0,0,1,28.188-9.795q34.475,0,69,.067-.022-5.1.008-10.164c.1-49.163.1-99.022,0-148.191v-8.833c-2.408-2.152-4.818-4.308-7.4-6.619-28.33-25.377-56.983-51.4-84.768-76.632q-29.869-27.121-59.855-54.233a12.25,12.25,0,0,0-9.743-3.573q-18.479.016-36.95.017-15.54,0-31.085-.006-34.568-.008-69.146.012c-35.6,31.807-71.544,64.434-106.3,95.985q-24.786,22.5-49.589,44.96c-.045,2.83-.091,5.622-.111,8.427q-.1,67.925-.031,135.833.022,49.689.009,99.416a31.666,31.666,0,0,0,15.033,27.677l-.744,1.212v0l.8-1.172C184.626,652.334,194,652.172,203.062,652.019ZM526.138,568.1c-3.582,5.9-3.568,13.076-3.553,20.013v2.611c.122,8.421.1,16.982.074,25.261-.023,8.41-.046,17.07.082,25.645,19.876-19.613,39.885-39.654,59.258-59.06q12.344-12.365,24.7-24.719c-10.851-.111-21.821-.111-32.466-.111-8.832,0-17.66,0-26.585-.068q-.871-.063-1.737-.063A23.837,23.837,0,0,0,526.138,568.1Zm104.577-70.576h0Zm1.133-89.941c.162,14.745.148,29.734.133,44.232-.013,14.167-.031,28.79.122,43.212,14.279-8.6,28.96-16.96,43.18-25.057,9.144-5.208,18.288-10.418,27.378-15.71-7.036-6.534-14.394-12.909-21.526-19.085-9.4-8.143-19.123-16.564-28.174-25.409-2.445-2.336-5.071-4.6-7.607-6.787a125.607,125.607,0,0,1-12.1-11.408A110.84,110.84,0,0,0,631.849,407.586Zm-528.8,22.59c-8.956,7.8-18.2,15.853-27.068,24.07,14.3,8.052,28.71,16.368,42.663,24.422q14.125,8.153,28.267,16.258c.4-11.078.346-22.312.3-33.2-.029-6.16-.057-12.318-.009-18.455-.048-4.879-.014-9.76.021-14.646.091-12.466.185-25.321-1.222-37.921C132.356,404.662,117.471,417.622,103.052,430.176ZM695.223,35.519c-2.114,1.825-4.227,3.653-6.341,5.456-70.851,61.942-142.442,124.95-212.813,187.312q115.829,104.9,231.7,209.755c.29-68.944.241-138.969.193-206.726-.042-59.469-.085-120.963.1-181.427l-.059-7.423c-.04-5.782-.08-11.733-.236-17.628C703.526,28.352,699.316,31.985,695.223,35.519ZM70.8,48.822l.04.854-.514.3c.264,69.588.215,140.311.173,208.719-.04,58.774-.079,119.508.076,179.316,42.908-38.165,86.071-77.374,127.833-115.312,34.093-30.969,69.336-62.983,104.248-94.253-19.737-18.035-40.207-35.911-60.014-53.211-13.317-11.632-27.085-23.655-40.5-35.613q-19.281-16.894-38.49-33.859C139.577,84.546,114.679,62.6,89.942,41.283c-2.008-1.753-4-3.528-5.99-5.3-4.213-3.764-8.55-7.632-13.019-11.248A225.537,225.537,0,0,0,70.8,48.822ZM457.95,220.058c3.764.661,6.757-1.967,9.652-4.494C533.282,157.883,599.82,99.351,665.371,41.593q14.793-13.13,29.551-26.3c-203.208-.247-408.793-.284-611.168-.1,3.826,3.546,7.8,6.989,11.675,10.341,5.741,4.97,11.669,10.1,17.143,15.6l.517-.043.455.406c33.707,30.064,68.243,60.35,101.64,89.636,33.094,29.022,67.306,59.021,100.723,88.818,35.84.141,72.279.125,107.528.1ZM227.88,583.266a8.515,8.515,0,1,1,0-17.03H369.91a8.515,8.515,0,1,1,0,17.03Zm247.133-73.8a8.515,8.515,0,1,1,0-17.031h96.581a8.515,8.515,0,1,1,0,17.031Zm-247.133,0a8.515,8.515,0,1,1,0-17.031h181.8a8.515,8.515,0,1,1,0,17.031Zm198.842-73.8a8.515,8.515,0,1,1,0-17.031H571.594a8.515,8.515,0,1,1,0,17.031Zm-198.842,0a8.515,8.515,0,1,1,0-17.031H384.114a8.515,8.515,0,1,1,0,17.031Zm0-73.8a8.515,8.515,0,1,1,0-17.031H526.144a8.515,8.515,0,1,1,0,17.031Z" transform="translate(774.735 666.992) rotate(180)" opacity="0.2" fill="url(#linear-gradient)"/>
</svg>
